<?xml version="1.0" encoding="UTF-8" standalone="no"?>
<svg
   width="210.32201"
   height="68"
   viewBox="0 0 210.32201 68"
   fill="none"
   version="1.1"
   id="svg18"
   sodipodi:docname="_Header.svg"
   inkscape:version="1.1.2 (0a00cf5339, 2022-02-04, custom)"
   xmlns:inkscape="http://www.inkscape.org/namespaces/inkscape"
   xmlns:sodipodi="http://sodipodi.sourceforge.net/DTD/sodipodi-0.dtd"
   xmlns="http://www.w3.org/2000/svg"
   xmlns:svg="http://www.w3.org/2000/svg">
  <defs
     id="defs22" />
  <sodipodi:namedview
     id="namedview20"
     pagecolor="#505050"
     bordercolor="#ffffff"
     borderopacity="1"
     inkscape:pageshadow="0"
     inkscape:pageopacity="0"
     inkscape:pagecheckerboard="1"
     showgrid="false"
     fit-margin-top="0"
     fit-margin-left="0"
     fit-margin-right="0"
     fit-margin-bottom="0"
     inkscape:zoom="1.0008065"
     inkscape:cx="154.8751"
     inkscape:cy="-74.939565"
     inkscape:window-width="1366"
     inkscape:window-height="705"
     inkscape:window-x="0"
     inkscape:window-y="0"
     inkscape:window-maximized="1"
     inkscape:current-layer="svg18" />
  <path
     d="M 20.0745,34.6485 8.84014,46.1362 V 62.2561 H 0 V 0 H 8.84014 V 34.8338 L 42.359,0 H 52.4883 L 26.1521,27.9782 54.33,62.2561 H 44.0165 Z"
     fill="#ff6060"
     id="path2" />
  <path
     d="m 118.789,57.2534 3.5,-6.6703 c 4.051,2.7793 10.313,4.8174 16.391,4.8174 7.919,0 11.05,-2.4087 11.05,-6.485 0,-10.5613 -29.652,-1.4823 -29.652,-20.1962 0,-8.5231 7.551,-14.0817 19.522,-14.0817 6.078,0 13.076,1.6676 17.128,4.2616 l -3.683,6.6703 c -4.236,-2.7793 -8.84,-3.7057 -13.445,-3.7057 -7.366,0 -11.05,2.7793 -11.05,6.485 0,11.1171 29.652,2.0381 29.652,20.3814 0,8.5232 -7.736,13.8965 -20.259,13.8965 -7.551,0.1853 -15.286,-2.2234 -19.154,-5.3733 z"
     fill="#ff6060"
     id="path4" />
  <path
     d="m 210.322,33.7221 v 28.534 h -8.104 v -6.2997 c -2.762,4.2616 -8.103,6.6703 -15.47,6.6703 -10.682,0 -17.312,-5.7439 -17.312,-13.8965 0,-7.5967 4.788,-13.7111 18.785,-13.7111 h 13.445 v -1.6676 c 0,-7.2262 -4.236,-11.3025 -12.524,-11.3025 -5.525,0 -11.234,2.0382 -14.918,5.0028 l -3.499,-6.485 c 4.789,-3.8911 11.787,-6.1145 19.338,-6.1145 13.076,0.1853 20.259,6.485 20.259,19.2698 z m -8.472,14.0817 v -6.6703 h -13.076 c -8.472,0 -10.866,3.3352 -10.866,7.2262 0,4.6321 3.867,7.5967 10.313,7.5967 6.446,0.1853 11.603,-2.594 13.629,-8.1526 z"
     fill="#ff6060"
     id="path6" />
  <path
     d="m 91.5323,49.842 v 12.5994 l 5.3409,-3.1498 V 46.6921 Z"
     fill="#ff6060"
     id="path8" />
  <path
     d="M 106.266,34.4632 84.3497,21.6785 72.1945,14.6376 60.2234,35.5749 60.4076,55.2153 82.1396,68 84.3497,66.703 V 48.1744 l 9.7609,-17.2316 9.9454,5.7438 v 18.5287 l 2.21,-1.297 z"
     fill="#ff6060"
     id="path10" />
</svg>
